name rise37.2698peak67.6939fall79.5734.mot
datacolumns 19
datarows 30
range 6.31831500000000 6.36664400000000
endheader
time	ground_force1_vx	ground_force1_vy	ground_force1_vz	ground_force1_px	ground_force1_py	ground_force1_pz	ground_force2_vx	ground_force2_vy	ground_force2_vz	ground_force2_px	ground_force2_py	ground_force2_pz	ground_torque1_x	ground_torque1_y	ground_torque1_z	ground_torque2_x	ground_torque2_y	ground_torque2_z	
6.31831500000000	-44.76316400000000	834.90852299999995	57.46618800000000	0.08806500000000	0.00000000000000	0.11822900000000	0.00000000000000	0.00000000000000	0.00000000000000	0.00000000000000	0.00000000000000	0.00000000000000	0.00000000000000	20.58942100000000	0.00000000000000	0.00000000000000	0.00000000000000	0.00000000000000	
6.31998100000000	-45.11085700000000	833.53016100000002	57.38755000000000	0.08744600000000	0.00000000000000	0.11820300000000	0.00000000000000	0.00000000000000	0.00000000000000	0.00000000000000	0.00000000000000	0.00000000000000	0.00000000000000	20.54505000000000	0.00000000000000	0.00000000000000	0.00000000000000	0.00000000000000	
6.32164200000000	-45.47021500000000	832.02787400000000	57.29011400000000	0.08683000000000	0.00000000000000	0.11817500000000	-0.94602800000000	3.93046800000000	0.61581900000000	0.00000000000000	0.00000000000000	0.00000000000000	0.00000000000000	20.50173200000000	0.00000000000000	0.00000000000000	0.20454700000000	0.00000000000000	
6.32331300000000	-45.84165800000000	830.40117899999996	57.17359000000000	0.08621700000000	0.00000000000000	0.11814700000000	-1.55501900000000	7.23984800000000	1.06614800000000	0.00000000000000	0.00000000000000	0.00000000000000	0.00000000000000	20.45959000000000	0.00000000000000	0.00000000000000	0.35749200000000	0.00000000000000	
6.32498200000000	-46.22556700000000	828.64963499999999	57.03771200000000	0.08560700000000	0.00000000000000	0.11811700000000	-2.25203100000000	11.19281300000000	1.59254900000000	0.00000000000000	0.00000000000000	0.00000000000000	0.00000000000000	20.41874000000000	0.00000000000000	0.00000000000000	0.53693900000000	0.00000000000000	
6.32664600000000	-46.62228700000000	826.77283199999999	56.88223700000000	0.08499900000000	0.00000000000000	0.11808500000000	-3.01821000000000	15.73475600000000	2.18412600000000	0.00000000000000	0.00000000000000	0.00000000000000	0.00000000000000	20.37928700000000	0.00000000000000	0.00000000000000	0.73939000000000	0.00000000000000	
6.32831100000000	-47.03212200000000	824.77038700000003	56.70694400000000	0.08439400000000	0.00000000000000	0.11805200000000	-3.82929600000000	20.78128300000000	2.82588800000000	0.00000000000000	0.00000000000000	0.00000000000000	0.00000000000000	20.34133200000000	0.00000000000000	0.00000000000000	0.95996200000000	0.00000000000000	
6.32997800000000	-47.45533200000000	822.64193699999998	56.51163900000000	0.08379100000000	0.00000000000000	0.11801700000000	-4.65719100000000	26.22441900000000	3.49975200000000	0.33064000000000	0.00000000000000	-0.05833100000000	0.00000000000000	20.30496500000000	0.00000000000000	0.00000000000000	2.07821800000000	0.00000000000000	
6.33164600000000	-47.89213200000000	820.38713600000005	56.29614700000000	0.08318900000000	0.00000000000000	0.11798000000000	-5.47199100000000	31.94144800000000	4.18588500000000	0.33399900000000	0.00000000000000	-0.05840800000000	0.00000000000000	20.27026600000000	0.00000000000000	0.00000000000000	2.50957800000000	0.00000000000000	
6.33330900000000	-48.34268900000000	818.00564699999995	56.06032300000000	0.08258900000000	0.00000000000000	0.11794200000000	-6.24422200000000	37.80524800000000	4.86423700000000	0.33703600000000	0.00000000000000	-0.05850000000000	0.00000000000000	20.23730700000000	0.00000000000000	0.00000000000000	2.94263300000000	0.00000000000000	
6.33498100000000	-48.80712100000000	815.49713399999996	55.80404100000000	0.08199100000000	0.00000000000000	0.11790100000000	-6.94695800000000	43.69464300000000	5.51602800000000	0.33979000000000	0.00000000000000	-0.05860300000000	0.00000000000000	20.20614700000000	0.00000000000000	0.00000000000000	3.36583000000000	0.00000000000000	
6.33664400000000	-49.28549200000000	812.86126500000000	55.52720400000000	0.08139400000000	0.00000000000000	0.11785700000000	-7.55758600000000	49.50342200000000	6.12502300000000	0.34229700000000	0.00000000000000	-0.05871800000000	0.00000000000000	20.17683700000000	0.00000000000000	0.00000000000000	3.76898700000000	0.00000000000000	
6.33831500000000	-49.77781100000000	810.09769800000004	55.22973700000000	0.08079900000000	0.00000000000000	0.11781200000000	-8.05900200000000	55.14706600000000	6.67843800000000	0.34458400000000	0.00000000000000	-0.05884400000000	0.00000000000000	20.14941200000000	0.00000000000000	0.00000000000000	4.14389100000000	0.00000000000000	
6.33997300000000	-50.28403200000000	807.20608500000003	54.91159000000000	0.08020400000000	0.00000000000000	0.11776400000000	-8.44020600000000	60.56676300000000	7.16744500000000	0.34667600000000	0.00000000000000	-0.05897800000000	0.00000000000000	20.12389800000000	0.00000000000000	0.00000000000000	4.48466400000000	0.00000000000000	
6.34164600000000	-50.80404900000000	804.18606299999999	54.57274100000000	0.07961000000000	0.00000000000000	0.11771300000000	-8.69630900000000	65.73067899999999	7.58727300000000	0.34859500000000	0.00000000000000	-0.05912100000000	0.00000000000000	20.10030700000000	0.00000000000000	0.00000000000000	4.78787800000000	0.00000000000000	
6.34331300000000	-51.33769300000000	801.03725399999996	54.21319000000000	0.07901700000000	0.00000000000000	0.11766000000000	-8.82803500000000	70.63281300000000	7.93696000000000	0.35035900000000	0.00000000000000	-0.05927100000000	0.00000000000000	20.07863800000000	0.00000000000000	0.00000000000000	5.05243700000000	0.00000000000000	
6.34498000000000	-51.88473500000000	797.75925900000004	53.83296300000000	0.07842400000000	0.00000000000000	0.11760400000000	-8.84085500000000	75.28991400000000	8.21883300000000	0.35198300000000	0.00000000000000	-0.05942900000000	0.00000000000000	20.05887500000000	0.00000000000000	0.00000000000000	5.27930300000000	0.00000000000000	
6.34664300000000	-52.44487800000000	794.35166000000004	53.43211100000000	0.07783200000000	0.00000000000000	0.11754500000000	-8.74387800000000	79.73705000000000	8.43780500000000	0.35348200000000	0.00000000000000	-0.05959300000000	0.00000000000000	20.04099100000000	0.00000000000000	0.00000000000000	5.47108100000000	0.00000000000000	
6.34830600000000	-53.01776000000000	790.81401600000004	53.01071200000000	0.07724000000000	0.00000000000000	0.11748200000000	-8.54863100000000	84.02243600000000	8.60058500000000	0.35486800000000	0.00000000000000	-0.05976300000000	0.00000000000000	20.02494000000000	0.00000000000000	0.00000000000000	5.63155500000000	0.00000000000000	
6.34997900000000	-53.60295000000000	787.14586099999997	52.56886700000000	0.07664800000000	0.00000000000000	0.11741700000000	-8.26786300000000	88.20207900000000	8.71487400000000	0.35615100000000	0.00000000000000	-0.05993900000000	0.00000000000000	20.01066400000000	0.00000000000000	0.00000000000000	5.76519200000000	0.00000000000000	
6.35164000000000	-54.19994600000000	783.34670600000004	52.10670600000000	0.07605600000000	0.00000000000000	0.11734900000000	-7.91444900000000	92.33469700000001	8.78862100000000	0.35734000000000	0.00000000000000	-0.06012000000000	0.00000000000000	19.99808900000000	0.00000000000000	0.00000000000000	5.87669200000000	0.00000000000000	
6.35330800000000	-54.80817300000000	779.41603399999997	51.62438000000000	0.07546300000000	0.00000000000000	0.11727700000000	-7.50047600000000	96.47727999999999	8.82938500000000	0.35844400000000	0.00000000000000	-0.06030500000000	0.00000000000000	19.98712600000000	0.00000000000000	0.00000000000000	5.97058000000000	0.00000000000000	
6.35497400000000	-55.42698600000000	775.35330599999998	51.12207000000000	0.07487000000000	0.00000000000000	0.11720200000000	-7.03653900000000	100.68152100000000	8.84383300000000	0.35947000000000	0.00000000000000	-0.06049500000000	0.00000000000000	19.97766800000000	0.00000000000000	0.00000000000000	6.05089400000000	0.00000000000000	
6.35664300000000	-56.05566200000000	771.15795900000001	50.59997900000000	0.07427600000000	0.00000000000000	0.11712300000000	-6.53129000000000	104.99125400000000	8.83739900000000	0.36042300000000	0.00000000000000	-0.06068800000000	0.00000000000000	19.96959600000000	0.00000000000000	0.00000000000000	6.12095700000000	0.00000000000000	
6.35831300000000	-56.69340500000000	766.82940799999994	50.05833900000000	0.07368200000000	0.00000000000000	0.11704100000000	-5.99119200000000	109.44089900000000	8.81408500000000	0.36131000000000	0.00000000000000	-0.06088500000000	0.00000000000000	19.96277200000000	0.00000000000000	0.00000000000000	6.18324700000000	0.00000000000000	
6.35998000000000	-57.33934200000000	762.36704499999996	49.49740500000000	0.07308600000000	0.00000000000000	0.11695500000000	-5.42049900000000	114.05486500000001	8.77641600000000	0.36213400000000	0.00000000000000	-0.06108500000000	0.00000000000000	19.95704200000000	0.00000000000000	0.00000000000000	6.23935100000000	0.00000000000000	
6.36164500000000	-57.99252200000000	757.77024700000004	48.91745900000000	0.07248900000000	0.00000000000000	0.11686600000000	-4.82139400000000	118.84777800000001	8.72550200000000	0.36289900000000	0.00000000000000	-0.06128900000000	0.00000000000000	19.95223900000000	0.00000000000000	0.00000000000000	6.28999600000000	0.00000000000000	
6.36331300000000	-58.65191800000000	753.03837399999998	48.31880900000000	0.07189000000000	0.00000000000000	0.11677300000000	-4.19426400000000	123.82536000000000	8.66119800000000	0.36361000000000	0.00000000000000	-0.06149500000000	0.00000000000000	19.94817700000000	0.00000000000000	0.00000000000000	6.33513800000000	0.00000000000000	
6.36497700000000	-59.31642700000000	748.17077600000005	47.70178800000000	0.07128900000000	0.00000000000000	0.11667600000000	-3.53805700000000	128.98578400000000	8.58233400000000	0.36426900000000	0.00000000000000	-0.06170300000000	0.00000000000000	19.94465600000000	0.00000000000000	0.00000000000000	6.37409000000000	0.00000000000000	
6.36664400000000	-59.98486600000000	743.16679599999998	47.06675600000000	0.07068700000000	0.00000000000000	0.11657500000000	-2.85067900000000	134.32130500000000	8.48696300000000	0.36487900000000	0.00000000000000	-0.06191400000000	0.00000000000000	19.94146100000000	0.00000000000000	0.00000000000000	6.40568200000000	0.00000000000000	
